Coordinates
version=1
nRows=22
nColumns=26
inDegrees=yes

Units are S.I. units (second, meters, Newtons, ...)
If the header above contains a line with 'inDegrees', this indicates whether rotational values are in degrees (yes) or radians (no).

endheader
time	pelvis_tilt	pelvis_list	pelvis_rotation	pelvis_tx	pelvis_ty	pelvis_tz	hip_flexion_r	hip_adduction_r	hip_rotation_r	knee_angle_r	knee_angle_r_beta	hip_flexion_l	hip_adduction_l	hip_rotation_l	knee_angle_l	knee_angle_l_beta	lumbar_extension	lumbar_bending	lumbar_rotation	ankle_angle_r	subtalar_angle_r	mtp_angle_r	ankle_angle_l	subtalar_angle_l	mtp_angle_l
      2.91333333	     -7.23842486	     -7.30376791	      4.16317078	      0.36593572	      0.84428663	     -0.35611179	      6.87197767	     11.95046592	      7.29625215	      7.32730736	      0.12788564	     30.01714792	    -11.28720084	     -0.34924365	     56.20553782	      0.98097169	     -9.24830701	     11.99276513	    -11.64198645	     -0.10027765	     -5.81973308	      0.00000000	     -2.59609943	     -8.70609244	      0.00000000
      2.92000000	     -7.39889148	     -7.23560828	      3.37008799	      0.37520574	      0.84538426	     -0.35593737	      5.99076824	     11.86169754	      7.88816511	      6.79874594	      0.11866050	     30.89883494	    -11.23578061	     -0.51166944	     54.80994949	      0.95661408	     -9.22383464	     11.88754003	    -10.88245280	     -0.47697103	     -5.09327070	      0.00000000	     -2.09127675	     -7.74460411	      0.00000000
      2.92666667	     -7.18377975	     -7.18681710	      2.53626144	      0.38452137	      0.84665754	     -0.35537538	      4.73709407	     11.85664415	      8.58810587	      6.36636092	      0.11111396	     31.27571074	    -11.38963264	     -0.80433168	     53.28569373	      0.93001080	     -9.66445814	     11.72189589	     -9.97192459	     -0.66361657	     -4.49830118	      0.00000000	     -1.03627577	     -6.06521657	      0.00000000
      2.93333333	     -7.30417374	     -7.19793780	      1.82115459	      0.39370669	      0.84733010	     -0.35502490	      3.90242117	     11.86005208	      9.14918203	      5.97437052	      0.10427244	     32.05666308	    -11.45403980	     -0.83646846	     51.68955490	      0.90215292	     -9.67779287	     11.64058459	     -9.27753904	     -0.96989473	     -4.02115353	      0.00000000	     -0.62447000	     -5.58888278	      0.00000000
      2.94000000	     -7.39926987	     -7.21999454	      1.08215322	      0.40290023	      0.84783526	     -0.35470557	      3.06317153	     11.86545620	      9.71491529	      5.63116577	      0.09828238	     32.73382293	    -11.54514519	     -0.83904026	     49.98400088	      0.87238539	     -9.73144361	     11.58981192	     -8.55603442	     -1.18231290	     -3.64100947	      0.00000000	     -0.19650924	     -5.28171057	      0.00000000
      2.94666667	     -7.48565287	     -7.45911444	      0.59325547	      0.41185549	      0.84795922	     -0.35442679	      2.42091572	     12.13056738	      9.80588222	      5.60997218	      0.09791249	     33.52198914	    -11.75403734	     -0.50203894	     48.26764544	      0.84242934	     -9.77729062	     11.74176379	     -8.28653612	     -1.17825248	     -3.55360109	      0.00000000	      0.09421541	     -5.23539411	      0.00000000
      2.95333333	     -7.56681382	     -7.36601848	     -0.33817319	      0.42111075	      0.84823982	     -0.35387259	      1.46462688	     12.01755623	     10.84243166	      5.11490568	      0.08927195	     33.92368479	    -11.87889830	     -0.72888232	     46.24740772	      0.80716954	     -9.88919711	     11.49353200	     -7.09204768	     -1.49534372	     -3.07131235	      0.00000000	      0.59918000	     -5.25494013	      0.00000000
      2.96000000	     -7.64454956	     -7.65793391	     -0.86347282	      0.43006123	      0.84796244	     -0.35348066	      0.82688438	     12.34890432	     10.93366717	      5.14351442	      0.08977126	     34.57068375	    -12.21084175	     -0.37775229	     44.35407904	      0.77412472	     -9.97601132	     11.66533046	     -6.85509243	     -1.45951932	     -3.04666035	      0.00000000	      0.91604706	     -5.30225114	      0.00000000
      2.96666667	     -7.24920747	     -7.41032425	     -1.92467151	      0.43923487	      0.84854018	     -0.35275714	     -0.61119008	     12.05153463	     12.21668623	      4.74452827	      0.08280764	     34.14272513	    -12.30015881	     -0.82594774	     41.91849766	      0.73161580	    -10.74471176	     11.15356249	     -5.46244715	     -1.77396919	     -3.17001582	      0.00000000	      1.03818400	     -6.15758300	      0.00000000
      2.97333333	     -7.31051276	     -7.51866720	     -2.68019241	      0.44820250	      0.84812305	     -0.35233757	     -1.36770994	     12.14376333	     12.79167487	      4.61519617	      0.08055037	     34.47065423	    -12.56758782	     -0.72870029	     39.70390879	      0.69296393	    -10.92998349	     11.11340094	     -4.78881177	     -1.90881648	     -3.19914583	      0.00000000	      1.25191352	     -6.74627439	      0.00000000
      2.98000000	     -7.31678811	     -7.62373867	     -3.40147246	      0.45731996	      0.84759688	     -0.35176830	     -2.16855877	     12.25160595	     13.35273999	      4.57078878	      0.07977531	     34.61894861	    -12.84966495	     -0.59845420	     37.30832119	      0.65115304	    -11.10811904	     11.00271605	     -4.04266481	     -1.94917945	     -3.29640834	      0.00000000	      1.35013967	     -7.48422681	      0.00000000
      2.98666667	     -7.33922324	     -7.73443964	     -4.10926062	      0.46637549	      0.84688259	     -0.35132969	     -2.92579453	     12.34487788	     13.82335848	      4.55995047	      0.07958615	     34.73166085	    -13.12557723	     -0.41390551	     34.84197685	      0.60810721	    -11.30267801	     10.91770999	     -3.32541651	     -1.94048817	     -3.40176036	      0.00000000	      1.38736112	     -8.22192014	      0.00000000
      2.99333333	     -7.52263140	     -8.15028796	     -4.57744554	      0.47548123	      0.84559067	     -0.35108371	     -3.46957987	     12.79080141	     13.84690698	      4.64042433	      0.08099068	     35.17306815	    -13.61755713	      0.10250027	     32.55636289	      0.56821572	    -11.25755905	     11.23255639	     -3.11646728	     -1.82236325	     -3.44363019	      0.00000000	      1.75393720	     -8.32695748	      0.00000000
      3.00000000	     -7.33855120	     -7.94407362	     -5.52314365	      0.48451838	      0.84505711	     -0.35062613	     -4.42626876	     12.46720217	     14.67049777	      4.69670270	      0.08197293	     34.66426726	    -13.67219279	      0.12351619	     29.65629524	      0.51760000	    -11.75966322	     10.71975559	     -1.89471975	     -1.77175449	     -3.59931627	      0.00000000	      1.20852658	     -9.71372922	      0.00000000
      3.00666667	     -7.38109008	     -8.02783236	     -6.21627278	      0.49367544	      0.84389565	     -0.35038812	     -5.11367173	     12.48047495	     15.07871310	      4.81298033	      0.08400235	     34.57400864	    -13.92656972	      0.47890880	     26.99058447	      0.47107457	    -11.92817714	     10.60653944	     -1.22611504	     -1.68741338	     -3.63615128	      0.00000000	      1.04304091	    -10.30524742	      0.00000000
      3.01333333	     -7.59465081	     -8.33927621	     -6.72387566	      0.50282546	      0.84226002	     -0.35040617	     -5.61493392	     12.75412364	     15.27434421	      4.94704740	      0.08634227	     34.79627370	    -14.32220064	      1.22991029	     24.53425148	      0.42820347	    -11.90136034	     10.82226783	     -0.75640238	     -1.54554302	     -3.65408568	      0.00000000	      1.23777206	    -10.37115358	      0.00000000
      3.02000000	     -7.54824232	     -8.26758807	     -7.56386636	      0.51218318	      0.84107407	     -0.35018236	     -6.36171299	     12.52344882	     15.76830826	      5.16803764	      0.09019927	     34.35637161	    -14.53133294	      1.45666916	     21.73040650	      0.37926714	    -12.14390915	     10.50766101	      0.19318234	     -1.36414208	     -3.64658628	      0.00000000	      0.71855841	    -10.97765548	      0.00000000
      3.02666667	     -7.49334550	     -8.33299504	     -8.20073328	      0.52162749	      0.83968479	     -0.35023643	     -7.13283920	     12.41734488	     16.09141008	      5.35352393	      0.09343662	     33.99403408	    -14.76412065	      2.07845005	     19.12670366	      0.33382395	    -12.39753679	     10.37276757	      0.83508590	     -1.16622136	     -3.53945377	      0.00000000	      0.34260080	    -11.48681753	      0.00000000
      3.03333333	     -7.46609827	     -8.41464569	     -8.81218583	      0.53118761	      0.83815377	     -0.35044374	     -7.85999505	     12.29824044	     16.41107866	      5.57934698	      0.09737797	     33.66241241	    -15.01017530	      2.78202708	     16.68063258	      0.29113196	    -12.60050272	     10.29701923	      1.43885208	     -0.95647303	     -3.36936038	      0.00000000	      0.01497033	    -11.86135535	      0.00000000
      3.04000000	     -7.70442583	     -8.71977662	     -9.23344791	      0.54081438	      0.83610537	     -0.35088676	     -8.32627688	     12.46694101	     16.58956003	      5.79658626	      0.10116952	     33.85671578	    -15.41763352	      3.74270099	     14.72820026	      0.25705559	    -12.49710272	     10.57858539	      1.74549373	     -0.84282104	     -3.33864245	      0.00000000	      0.25719716	    -11.70095025	      0.00000000
      3.04666667	     -7.86681567	     -8.89455376	     -9.70044785	      0.55063904	      0.83415473	     -0.35126003	     -8.85193749	     12.45932308	     16.89118864	      6.06457477	      0.10584680	     33.88872473	    -15.73973131	      4.64416973	     12.88829014	      0.22494310	    -12.41632784	     10.66000588	      2.28604401	     -0.74370781	     -3.25054085	      0.00000000	      0.21172679	    -11.53438156	      0.00000000
      3.05333333	     -7.51918814	     -8.71154707	    -10.44278817	      0.56060537	      0.83300751	     -0.35147633	     -9.84729714	     11.87477178	     17.39554648	      6.39070044	      0.11153876	     33.06934678	    -15.83941545	      4.93282347	     10.91501845	      0.19050301	    -12.94496179	     10.17283993	      3.23124012	     -0.46660271	     -2.78333413	      0.00000000	     -0.64628475	    -12.24399924	      0.00000000
